<?xml version="1.0" encoding="UTF-8" standalone="no"?>
<svg width="77px" height="25px" viewBox="0 0 77 25" version="1.1" xmlns="http://www.w3.org/2000/svg" xmlns:xlink="http://www.w3.org/1999/xlink">
    <!-- Generator: Sketch 3.6.1 (26313) - http://www.bohemiancoding.com/sketch -->
    <title>img_arrow@3x</title>
    <desc>Created with Sketch.</desc>
    <defs></defs>
    <g id="Page-1" stroke="none" stroke-width="1" fill="none" fill-rule="evenodd">
        <g id="busbud_pongdome_scoreboard" transform="translate(-61.000000, -240.000000)" fill="#414143">
            <path d="M127.181935,262.479579 L127.181935,252.976108 L135.914132,252.976108 L127.181935,262.479579 Z M127.181935,243.057727 L135.827586,251.703378 L127.181935,251.703378 L127.181935,243.057727 Z M137.99759,252.276107 L137.99759,252.274834 C137.982317,252.133561 137.921226,251.996106 137.811772,251.887924 L126.996116,241.072269 C126.814116,240.890268 126.541752,240.838087 126.302479,240.933541 C126.064478,241.031541 125.909205,241.264451 125.909205,241.521542 L125.909205,251.703378 L61.6363648,251.703378 C61.2850914,251.703378 61,251.98847 61,252.339743 C61,252.692289 61.2850914,252.976108 61.6363648,252.976108 L125.909205,252.976108 L125.909205,264.112491 C125.909205,264.374673 126.069569,264.610128 126.313933,264.705583 C126.389024,264.734856 126.467934,264.748856 126.54557,264.748856 C126.719934,264.748856 126.89048,264.677583 127.013935,264.542674 L137.828317,252.775017 C137.841044,252.759744 137.855045,252.745744 137.867772,252.729198 C137.945408,252.629925 137.988681,252.512834 137.99759,252.393198 C138.001408,252.355016 138.000136,252.315561 137.99759,252.276107 L137.99759,252.276107 Z" id="img_arrow"></path>
        </g>
    </g>
</svg>