<?xml version="1.0" encoding="utf-8"?>
<!-- Generator: Adobe Illustrator 18.1.1, SVG Export Plug-In . SVG Version: 6.00 Build 0)  -->
<svg version="1.1" id="Layer_1" xmlns="http://www.w3.org/2000/svg" xmlns:xlink="http://www.w3.org/1999/xlink" x="0px" y="0px"
	 viewBox="0 0 612 132.2" enable-background="new 0 0 612 132.2" xml:space="preserve">
<g>
	<g>
		<path d="M72.6,53.3H64c-0.4,0-0.7,0.3-0.7,0.7v25.6c0,0.4,0.3,0.7,0.7,0.7h0.6c0.4,0,0.7-0.3,0.7-0.7v-9.8h7.3
			c4.6,0,8.3-3.7,8.3-8.3C80.9,57,77.2,53.3,72.6,53.3z M72.6,67.8h-7.3V55.4h7.2c3.4,0,6.2,2.8,6.2,6.2C78.8,65,76,67.8,72.6,67.8z
			"/>
		<path d="M106.9,53.3c-7.5,0-13.5,6.1-13.5,13.5c0,7.5,6.1,13.5,13.5,13.5c7.5,0,13.6-6.1,13.6-13.5
			C120.5,59.4,114.4,53.3,106.9,53.3z M106.9,78.3c-6.4,0-11.5-5-11.5-11.5c0-6.4,5-11.5,11.5-11.5c6.3,0,11.5,5.1,11.5,11.5
			S113.3,78.3,106.9,78.3z"/>
		<path d="M157.2,53.3h-0.7c-0.4,0-0.7,0.3-0.7,0.7v22.9l-18.5-23.3c-0.1-0.2-0.3-0.3-0.6-0.3h-1.1c-0.4,0-0.7,0.3-0.7,0.7v25.6
			c0,0.4,0.3,0.7,0.7,0.7h0.7c0.4,0,0.7-0.3,0.7-0.7V56.8l18.6,23.4c0.1,0.2,0.3,0.3,0.6,0.3h1.1c0.4,0,0.7-0.3,0.7-0.7V54
			C157.9,53.6,157.6,53.3,157.2,53.3z"/>
		<path d="M198,65.2h-12.9c-0.4,0-0.7,0.3-0.7,0.7v0.7c0,0.4,0.3,0.7,0.7,0.7h11.4c-0.3,6-5.4,11-11.4,11c-6.3,0-11.5-5.1-11.5-11.5
			s5.1-11.5,11.5-11.5c3,0,5.9,1.2,8,3.3c0.3,0.3,0.7,0.3,1,0l0.5-0.4c0.1-0.1,0.2-0.3,0.2-0.5c0-0.2-0.1-0.4-0.2-0.5
			c-2.6-2.5-5.9-3.9-9.5-3.9c-7.5,0-13.5,6.1-13.5,13.5c0,7.5,6.1,13.5,13.5,13.5c7.5,0,13.6-6.1,13.6-13.5v-1
			C198.7,65.5,198.4,65.2,198,65.2z"/>
		<path d="M420.2,53.3h-9.6c-0.4,0-0.7,0.3-0.7,0.7v25.6c0,0.4,0.3,0.7,0.7,0.7h9.6c7.5,0,13.5-6.1,13.5-13.5
			C433.7,59.4,427.7,53.4,420.2,53.3z M412,55.4h8.1c6.3,0,11.5,5.1,11.5,11.4c0,6.3-5.1,11.4-11.5,11.4H412V55.4z"/>
		<path d="M460.1,53.3c-7.5,0-13.5,6.1-13.5,13.5c0,7.5,6.1,13.5,13.5,13.5c7.5,0,13.6-6.1,13.6-13.5
			C473.6,59.4,467.6,53.3,460.1,53.3z M460.1,78.3c-6.4,0-11.5-5-11.5-11.5c0-6.4,5-11.5,11.5-11.5c6.3,0,11.5,5.1,11.5,11.5
			S466.4,78.3,460.1,78.3z"/>
		<path d="M515.8,53.3h-1c-0.2,0-0.4,0.1-0.5,0.2l-12,12l-12-12c-0.1-0.1-0.3-0.2-0.5-0.2h-1c-0.4,0-0.7,0.3-0.7,0.7v25.6
			c0,0.4,0.3,0.7,0.7,0.7h0.7c0.4,0,0.7-0.3,0.7-0.7V56.4L501.8,68c0.3,0.3,0.7,0.3,1,0l11.6-11.6v23.3c0,0.4,0.3,0.7,0.7,0.7h0.7
			c0.4,0,0.7-0.3,0.7-0.7V54C516.5,53.6,516.2,53.3,515.8,53.3z"/>
		<path d="M548.4,55.4c0.4,0,0.7-0.3,0.7-0.7V54c0-0.4-0.3-0.7-0.7-0.7h-16c-0.4,0-0.7,0.3-0.7,0.7v25.6c0,0.4,0.3,0.7,0.7,0.7h16
			c0.4,0,0.7-0.3,0.7-0.7V79c0-0.4-0.3-0.7-0.7-0.7h-14.6V67.6h13.5c0.4,0,0.7-0.3,0.7-0.7v-0.7c0-0.4-0.3-0.7-0.7-0.7h-13.5V55.4
			H548.4z"/>
	</g>
	<g>
		<g>
			<path d="M377.1,61.5c-2.1-7.1-5.4-13.4-9.9-19.2c-5.1-6.5-11.3-11.6-18.5-15.5c-6.1-3.2-12.5-5.3-19.4-6.1
				c-2.6-0.3-5.1-0.5-7.7-0.5c-5.4,0-10.7,0.7-16,2.3c-4.5,1.3-8.7,3.1-12.6,5.4c0.9,0.6,1.9,1.1,2.7,1.7c3.4-1.9,7-3.4,10.7-4.4
				c5-1.4,10.1-2.1,15.2-2.1c2.4,0,4.9,0.2,7.3,0.5c6.5,0.8,12.7,2.8,18.4,5.8c7,3.7,12.9,8.7,17.6,14.7c4.4,5.6,7.5,11.8,9.4,18.3
				c2.3,7.9,2.8,16.1,1.5,24.4c-1.4,9.1-5,17.4-10.7,24.7h3.6c5.2-7.2,8.6-15.3,10-24.3C380.1,78.4,379.5,69.9,377.1,61.5z"/>
			<path d="M307.6,67.9c0.6-5,0.2-10-1.3-14.9c-1.2-4-3.2-7.8-5.8-11.2c-2.8-3.6-6.2-6.6-10.1-8.9c-0.4-0.2-0.7-0.5-1.1-0.7
				c-0.6-0.3-1.1-0.6-1.7-0.9c-3.4-1.6-6.9-2.7-10.8-3.3c-5.2-0.7-10.5-0.2-15.8,1.4c-3.4,1.1-6.6,2.7-9.7,4.9
				c-4.2,3-7.6,6.7-10.2,11.2c-2.7,4.7-4.4,9.7-4.8,15c-0.3,3.9,0,7.7,0.8,11.3c0.8,3.4,2,6.4,3.6,9.2c1.4,2.4,0.1,4.1-0.5,4.7
				l-0.3,0.3c-3.3,3.2-6.6,6.5-9.8,9.8c-0.4,0.4-3.3,3.4-3.6,3.8c0,0,0,0.5,0.1,0.6c0,0,0.4,0.7,0.5,0.8c1.8,1.9,3.7,3.7,5.5,5.6
				l2,2c0.8,0.8,1.7,0.5,2.1,0.1c2.8-2.8,5.6-5.6,8.5-8.5c1.5-1.5,3-3,4.5-4.5c0.3-0.3,1.3-1.3,2.9-1.3c0.7,0,1.4,0.2,2.1,0.6
				c1.9,1.1,4.1,2.1,6.8,2.9c2.1,0.7,4.3,1.1,6.4,1.3c1.1,0.1,2.2,0.2,3.2,0.2c1.6,0,3.1,0,4.7-0.2c6.3-0.7,12-2.9,17.1-6.6
				c4.4-3.2,8-7.2,10.6-12C305.6,76.8,307,72.5,307.6,67.9z M270.2,97.2c-0.9,0-1.9-0.2-3.2-0.5c-2-0.4-4.7-1.3-8-2.7
				c-0.4-0.2-0.8-0.3-1.2-0.5c-0.4-0.2-0.7-0.3-1.1-0.5l0.1,0c-1.4-0.7-2.7-1.5-4-2.5c-0.9-0.6-1.7-0.2-2.1,0.2
				c-1.9,1.9-3.8,3.8-5.7,5.7l-3.7,3.7l-0.2,0.2c-0.7,0.7-1.4,1.5-2.2,2.2l-3.3,3.4l-6-6.3l3.1-3c0.8-0.7,1.6-1.5,2.3-2.3l1.7-1.7
				c2.6-2.6,5.3-5.2,7.9-7.9c0.6-0.7,0.8-1.2,0.1-2.3c-2.7-3.8-4.8-8.2-5.5-13c-0.7-4.6-0.4-8.1-0.4-8.1l5.1,5l0.2,0.2l20.2,20.3
				l3.7,3.7l1.9,1.9l0,0l4.5,4.5C274.7,97,273.3,97.4,270.2,97.2z M292.6,89.6c-3.6,2.9-7.7,4.9-12.4,6.1l-2.3,0.4
				c-3.1-3.1-7.5-7.5-10.6-10.6c-1.1-1.1-2.2-2.1-3.2-3.2c-0.9-0.9-1.7-1.7-2.6-2.6l0,0l-6.8-6.8c-4.6-4.6-10.6-10.6-15.2-15.2
				c0,0,0.3-2,0.4-2.4c1.4-5.3,4-10,7.6-14c3.2-3.5,7-6.2,11.2-8.1c4.2-1.8,8.7-2.8,13.3-2.8l0.5,0c4.3,0.1,8.5,0.9,12.4,2.6
				c0.1,0,0.2,0.1,0.3,0.1c1,0.4,1.9,0.9,2.8,1.4c3.6,2,6.8,4.6,9.4,7.7c3.7,4.4,6,9.3,7.1,14.8c0.3,1.5,0.5,3.1,0.6,4.2l0.1,1.2
				l0,0.2c-0.1,8.3-2.3,14.9-6.7,20.8C296.7,85.8,294.7,87.8,292.6,89.6z"/>
			<path d="M307.7,95.6c-3,0-5.5,2-6.4,4.7c-0.2,0.7-0.4,1.4-0.4,2.2c0,3.8,3.1,6.8,6.8,6.8c3.8,0,6.8-3.1,6.8-6.8
				c0-0.8-0.2-1.5-0.4-2.2C313.2,97.5,310.7,95.6,307.7,95.6z M307.7,106.8c-2.4,0-4.4-2-4.4-4.4c0-0.8,0.2-1.5,0.6-2.2
				c0.8-1.3,2.2-2.3,3.8-2.3s3.1,0.9,3.8,2.3c0.4,0.6,0.6,1.4,0.6,2.2C312.1,104.8,310.1,106.8,307.7,106.8z"/>
		</g>
	</g>
	<g>
		<path d="M422.7,104.8H422v-8.2h0.7v1h0c0.1-0.2,0.2-0.4,0.4-0.5c0.2-0.2,0.3-0.3,0.5-0.4c0.2-0.1,0.4-0.2,0.6-0.2s0.4-0.1,0.6-0.1
			c0.5,0,0.9,0.1,1.2,0.2c0.3,0.2,0.6,0.4,0.8,0.7c0.2,0.3,0.4,0.6,0.5,1c0.1,0.4,0.1,0.8,0.1,1.2c0,0.4-0.1,0.8-0.2,1.2
			c-0.1,0.4-0.3,0.7-0.5,1c-0.2,0.3-0.5,0.5-0.8,0.7c-0.3,0.2-0.7,0.3-1.2,0.3c-0.4,0-0.8-0.1-1.2-0.3s-0.7-0.5-0.9-0.8V104.8z
			 M422.7,99.5c0,0.3,0,0.7,0.1,1c0.1,0.3,0.2,0.6,0.4,0.8c0.2,0.2,0.4,0.4,0.6,0.5c0.2,0.1,0.5,0.2,0.8,0.2c0.3,0,0.7-0.1,0.9-0.2
			c0.3-0.1,0.5-0.3,0.6-0.6c0.2-0.2,0.3-0.5,0.4-0.9c0.1-0.3,0.1-0.7,0.1-1c0-0.4-0.1-0.7-0.2-1c-0.1-0.3-0.2-0.5-0.4-0.7
			c-0.2-0.2-0.4-0.3-0.6-0.5c-0.2-0.1-0.5-0.2-0.8-0.2c-0.3,0-0.6,0.1-0.9,0.2c-0.3,0.1-0.5,0.3-0.6,0.5c-0.2,0.2-0.3,0.5-0.4,0.8
			C422.7,98.8,422.7,99.2,422.7,99.5z"/>
		<path d="M432.3,102.6c-0.4,0-0.7-0.1-1.1-0.2c-0.3-0.1-0.6-0.3-0.9-0.6c-0.2-0.3-0.4-0.6-0.6-1c-0.1-0.4-0.2-0.8-0.2-1.4
			c0-0.4,0.1-0.8,0.2-1.2s0.3-0.7,0.5-1c0.2-0.3,0.5-0.5,0.9-0.7s0.7-0.2,1.2-0.2c0.5,0,0.9,0.1,1.2,0.2c0.3,0.2,0.6,0.4,0.9,0.7
			c0.2,0.3,0.4,0.6,0.5,1c0.1,0.4,0.2,0.8,0.2,1.2c0,0.5-0.1,0.9-0.2,1.3c-0.1,0.4-0.3,0.7-0.6,1s-0.5,0.5-0.9,0.6
			C433.1,102.5,432.8,102.6,432.3,102.6z M434.4,99.5c0-0.3,0-0.7-0.1-1c-0.1-0.3-0.2-0.6-0.4-0.8c-0.2-0.2-0.4-0.4-0.6-0.5
			c-0.3-0.1-0.6-0.2-0.9-0.2c-0.4,0-0.7,0.1-0.9,0.2c-0.3,0.1-0.5,0.3-0.6,0.6c-0.2,0.2-0.3,0.5-0.4,0.8c-0.1,0.3-0.1,0.6-0.1,0.9
			c0,0.4,0,0.7,0.1,1c0.1,0.3,0.2,0.6,0.4,0.8c0.2,0.2,0.4,0.4,0.6,0.5c0.3,0.1,0.5,0.2,0.9,0.2c0.4,0,0.7-0.1,0.9-0.2
			c0.3-0.1,0.5-0.3,0.6-0.6c0.2-0.2,0.3-0.5,0.4-0.8C434.3,100.1,434.4,99.8,434.4,99.5z"/>
		<path d="M442.5,101.5l1.6-5h0.7l-1.9,5.9h-0.7l-1.3-5h0l-1.3,5h-0.8l-1.8-5.9h0.7l1.5,5l1.4-5h0.8L442.5,101.5z"/>
		<path d="M447.3,99.7c0,0.3,0,0.6,0.1,0.9c0.1,0.3,0.2,0.5,0.4,0.7c0.2,0.2,0.4,0.4,0.6,0.5c0.3,0.1,0.5,0.2,0.9,0.2
			c0.4,0,0.8-0.1,1.2-0.4c0.3-0.2,0.5-0.6,0.6-1h0.8c-0.1,0.3-0.2,0.5-0.3,0.8c-0.1,0.2-0.3,0.4-0.5,0.6c-0.2,0.2-0.4,0.3-0.7,0.4
			c-0.3,0.1-0.6,0.1-1,0.1c-0.5,0-0.9-0.1-1.2-0.2c-0.3-0.2-0.6-0.4-0.8-0.7c-0.2-0.3-0.4-0.6-0.5-1c-0.1-0.4-0.2-0.8-0.2-1.2
			c0-0.4,0.1-0.8,0.2-1.2c0.1-0.4,0.3-0.7,0.5-1c0.2-0.3,0.5-0.5,0.8-0.7c0.3-0.2,0.7-0.2,1.1-0.2c0.8,0,1.5,0.3,1.9,0.8
			c0.5,0.6,0.7,1.4,0.7,2.4H447.3z M451.1,99.1c0-0.3,0-0.6-0.1-0.8c-0.1-0.3-0.2-0.5-0.4-0.7s-0.4-0.3-0.6-0.4
			c-0.2-0.1-0.5-0.2-0.8-0.2c-0.3,0-0.6,0.1-0.8,0.2c-0.2,0.1-0.4,0.3-0.6,0.5c-0.2,0.2-0.3,0.4-0.4,0.7c-0.1,0.3-0.2,0.5-0.2,0.8
			H451.1z"/>
		<path d="M455,102.5h-0.7v-5.9h0.7v1.1h0c0.2-0.5,0.4-0.8,0.7-1c0.3-0.2,0.7-0.3,1.2-0.3v0.7c-0.4,0-0.7,0.1-1,0.2
			c-0.3,0.1-0.5,0.3-0.6,0.5c-0.1,0.2-0.3,0.5-0.3,0.8c-0.1,0.3-0.1,0.6-0.1,0.9V102.5z"/>
		<path d="M459.7,99.7c0,0.3,0,0.6,0.1,0.9c0.1,0.3,0.2,0.5,0.4,0.7c0.2,0.2,0.4,0.4,0.6,0.5c0.3,0.1,0.5,0.2,0.9,0.2
			c0.4,0,0.8-0.1,1.2-0.4c0.3-0.2,0.5-0.6,0.6-1h0.8c-0.1,0.3-0.2,0.5-0.3,0.8c-0.1,0.2-0.3,0.4-0.5,0.6c-0.2,0.2-0.4,0.3-0.7,0.4
			c-0.3,0.1-0.6,0.1-1,0.1c-0.5,0-0.9-0.1-1.2-0.2c-0.3-0.2-0.6-0.4-0.8-0.7c-0.2-0.3-0.4-0.6-0.5-1c-0.1-0.4-0.2-0.8-0.2-1.2
			c0-0.4,0.1-0.8,0.2-1.2c0.1-0.4,0.3-0.7,0.5-1c0.2-0.3,0.5-0.5,0.8-0.7c0.3-0.2,0.7-0.2,1.1-0.2c0.8,0,1.5,0.3,1.9,0.8
			c0.5,0.6,0.7,1.4,0.7,2.4H459.7z M463.5,99.1c0-0.3,0-0.6-0.1-0.8c-0.1-0.3-0.2-0.5-0.4-0.7s-0.4-0.3-0.6-0.4
			c-0.2-0.1-0.5-0.2-0.8-0.2c-0.3,0-0.6,0.1-0.8,0.2c-0.2,0.1-0.4,0.3-0.6,0.5c-0.2,0.2-0.3,0.4-0.4,0.7c-0.1,0.3-0.2,0.5-0.2,0.8
			H463.5z"/>
		<path d="M471.3,94.3h0.7v8.2h-0.7v-1h0c-0.1,0.2-0.2,0.4-0.4,0.5c-0.2,0.1-0.3,0.3-0.5,0.4c-0.2,0.1-0.4,0.2-0.6,0.2
			c-0.2,0.1-0.4,0.1-0.6,0.1c-0.5,0-0.9-0.1-1.2-0.2c-0.3-0.2-0.6-0.4-0.8-0.7c-0.2-0.3-0.4-0.6-0.5-1c-0.1-0.4-0.1-0.8-0.1-1.2
			c0-0.4,0.1-0.8,0.2-1.2c0.1-0.4,0.3-0.7,0.5-1c0.2-0.3,0.5-0.5,0.8-0.7c0.3-0.2,0.7-0.3,1.2-0.3c0.4,0,0.8,0.1,1.2,0.3
			c0.4,0.2,0.7,0.5,0.9,0.8V94.3z M471.3,99.5c0-0.3,0-0.7-0.1-1c-0.1-0.3-0.2-0.6-0.4-0.8c-0.2-0.2-0.4-0.4-0.6-0.5
			c-0.2-0.1-0.5-0.2-0.8-0.2c-0.4,0-0.7,0.1-0.9,0.2c-0.3,0.1-0.5,0.3-0.6,0.6c-0.2,0.2-0.3,0.5-0.4,0.8c-0.1,0.3-0.1,0.7-0.1,1
			c0,0.4,0.1,0.7,0.2,1c0.1,0.3,0.2,0.5,0.4,0.7s0.4,0.3,0.6,0.5c0.2,0.1,0.5,0.2,0.8,0.2c0.3,0,0.6-0.1,0.9-0.2
			c0.3-0.1,0.5-0.3,0.6-0.5c0.2-0.2,0.3-0.5,0.4-0.8C471.3,100.2,471.3,99.8,471.3,99.5z"/>
		<path d="M479.9,102.5h-0.7v-8.2h0.7v3.2c0.2-0.4,0.5-0.6,0.9-0.8c0.4-0.2,0.8-0.3,1.2-0.3c0.4,0,0.8,0.1,1.2,0.3
			c0.3,0.2,0.6,0.4,0.8,0.7c0.2,0.3,0.4,0.6,0.5,1c0.1,0.4,0.2,0.8,0.2,1.2c0,0.4-0.1,0.8-0.1,1.2c-0.1,0.4-0.3,0.7-0.5,1
			s-0.5,0.5-0.8,0.7c-0.3,0.2-0.7,0.2-1.2,0.2c-0.2,0-0.4,0-0.6-0.1c-0.2-0.1-0.4-0.1-0.6-0.2c-0.2-0.1-0.4-0.2-0.5-0.4
			c-0.2-0.2-0.3-0.3-0.4-0.5h0V102.5z M479.9,99.5c0,0.4,0,0.7,0.1,1c0.1,0.3,0.2,0.6,0.4,0.8c0.2,0.2,0.4,0.4,0.6,0.5
			c0.3,0.1,0.5,0.2,0.9,0.2c0.3,0,0.6-0.1,0.8-0.2c0.2-0.1,0.5-0.3,0.6-0.5c0.2-0.2,0.3-0.4,0.4-0.7c0.1-0.3,0.2-0.6,0.2-1
			c0-0.4,0-0.7-0.1-1c-0.1-0.3-0.2-0.6-0.4-0.8c-0.2-0.2-0.4-0.4-0.6-0.6c-0.3-0.1-0.6-0.2-0.9-0.2c-0.3,0-0.6,0.1-0.8,0.2
			c-0.2,0.1-0.5,0.3-0.6,0.5c-0.2,0.2-0.3,0.5-0.4,0.8C480,98.8,479.9,99.1,479.9,99.5z"/>
		<path d="M487.2,104.1c0.1,0,0.2,0,0.3,0c0.1,0,0.2,0,0.3,0c0.2,0,0.3-0.1,0.5-0.2c0.1-0.1,0.2-0.3,0.3-0.4
			c0.1-0.2,0.1-0.3,0.2-0.5c0.1-0.2,0.1-0.3,0.2-0.5l-2.3-5.9h0.8l1.9,5.1l1.9-5.1h0.7l-2.2,5.8c-0.1,0.4-0.3,0.7-0.4,1
			c-0.1,0.3-0.3,0.5-0.4,0.8s-0.3,0.4-0.5,0.5c-0.2,0.1-0.4,0.2-0.6,0.2c-0.1,0-0.2,0-0.3,0c-0.1,0-0.2,0-0.3-0.1V104.1z"/>
	</g>
	<g>
		<path fill="#FBAE19" d="M510.6,95.4l-4.8-4.8c-0.5-0.5-1.2-0.5-1.7,0l-4.8,4.8c-0.5,0.5-0.5,1.2,0,1.7l1.5,1.5l1.2,1.2l1.6,1.6
			l0.5,0.5c0,0,0.1,0.1,0.1,0.1v1.4v2.8c0,0.4,0.3,0.7,0.7,0.7c0.4,0,0.7-0.3,0.7-0.7v-2.8v-0.9c-0.2,0.1-0.4,0.3-0.7,0.3
			c-0.3,0-0.6-0.2-0.7-0.3V102c0.4,0.3,1,0.3,1.4,0c0,0,0.1-0.1,0.1-0.1l0.5-0.5l1.6-1.6l1.1-1.1l1.6-1.6
			C511.1,96.6,511.1,95.8,510.6,95.4"/>
		<g>
			<rect x="505.7" y="101.9" fill="#F79421" width="0" height="0.5"/>
		</g>
		<path fill="#2A79BD" d="M546.2,98.1c0,0,1.1-0.1,1.1,2.2s-1.1,2.3-1.1,2.3s-1.2,0.2-1.2-2.3C545.1,97.8,546.2,98.1,546.2,98.1
			 M545.7,103.8c1.3,0,1.7-1.1,1.7-1.1v0.9h1.5v-9.5h-1.5l0,3.8c0-0.2-0.6-1-1.7-1c-1.5,0-2.2,1.4-2.2,3.6
			C543.5,104,545.7,103.8,545.7,103.8"/>
		<path fill="#2A79BD" d="M539.1,103.7c1.6,0,2-1.4,2-1.4v1.3h1.5v-6.5H541v2.8c0,1.2-0.6,2.4-1.5,2.4c-0.7,0-0.7-1.4-0.7-1.4v-3.9
			h-1.5v4.5C537.3,102.3,537.5,103.7,539.1,103.7"/>
		<path fill="#2A79BD" d="M533.6,97.9c0.6,0,1.1,0.3,1.1,2.4c0,2-0.5,2.5-1.1,2.5c-0.9,0-1.2-0.8-1.2-2.4
			C532.4,98.7,533,97.9,533.6,97.9 M533.6,103.8c1.7,0,2.7-0.9,2.7-3.4c0-2.5-1-3.4-2.2-3.4c-1.3,0-1.7,1-1.7,1v-3.8h-1.5v6.7
			C530.9,102.7,531.9,103.8,533.6,103.8"/>
		<path fill="#2A79BD" d="M516.3,97.9c0.6,0,1.1,0.3,1.1,2.4c0,2-0.5,2.5-1.1,2.5c-0.9,0-1.2-0.8-1.2-2.4
			C515.1,98.7,515.7,97.9,516.3,97.9 M516.3,103.8c1.7,0,2.7-0.9,2.7-3.4c0-2.5-1-3.4-2.2-3.4s-1.7,1-1.7,1v-3.8h-1.5v6.7
			C513.6,102.7,514.6,103.8,516.3,103.8"/>
		<path fill="#2A79BD" d="M521.7,103.7c1.6,0,2-1.4,2-1.4v1.3h1.5v-6.5h-1.5v2.8c0,1.2-0.6,2.4-1.5,2.4c-0.7,0-0.7-1.4-0.7-1.4v-3.9
			H520v4.5C520,102.3,520.2,103.7,521.7,103.7"/>
		<path fill="#2A79BD" d="M530.3,101.8c0-1.8-2.9-2.5-2.9-3.2c0-0.3,0.6-0.6,1-0.6c0.6,0,1.4,0.5,1.4,0.5v-1.3c0,0-0.8-0.3-1.4-0.3
			c-0.6,0-2.3,0.2-2.3,1.9c0,1.8,2.8,2.5,2.8,3.2c0,0.3-0.3,0.6-1.2,0.6c-0.9,0-1.6-0.4-1.6-0.4v1.3c0,0,0.7,0.3,1.8,0.3
			C528.8,103.7,530.3,103.4,530.3,101.8"/>
		<path fill="#E88623" d="M507.6,95.7c-0.1,1.4-1.3,2.6-2.7,2.6c-1.5,0-2.6-1.1-2.7-2.6h-0.7c0,1.9,1.6,3.4,3.4,3.4
			c1.9,0,3.4-1.5,3.4-3.4H507.6z"/>
		<path fill="#E88623" d="M505.7,101.9c-0.4,0.3-1,0.3-1.4,0v0.5c0.1,0.1,0.4,0.3,0.7,0.3c0.3,0,0.5-0.1,0.7-0.3L505.7,101.9
			L505.7,101.9"/>
	</g>
</g>
</svg>
