<?xml version="1.0" encoding="UTF-8" standalone="no"?>
<svg width="184px" height="110px" viewBox="0 0 184 110" version="1.1" xmlns="http://www.w3.org/2000/svg" xmlns:xlink="http://www.w3.org/1999/xlink">
    <!-- Generator: Sketch 3.7.1 (28215) - http://www.bohemiancoding.com/sketch -->
    <title>pongdome-symbol</title>
    <desc>Created with Sketch.</desc>
    <defs></defs>
    <g id="Page-1" stroke="none" stroke-width="1" fill="none" fill-rule="evenodd">
        <g id="busbud_pongdome_leaderboard" transform="translate(-861.000000, -44.000000)" fill="#FFFFFF">
            <g id="pongdome-symbol" transform="translate(861.000000, 44.000000)">
                <path d="M180.444961,49.3920193 C177.980806,40.968284 173.964641,33.3511851 168.590468,26.4250026 C162.5458,18.6445343 155.098877,12.5249884 146.436895,7.91320597 C139.197588,4.06041063 131.474979,1.64050119 123.309912,0.592214124 C120.243332,0.197404708 117.19377,0 114.157822,0 C107.725151,0 101.363954,0.888321186 95.0674249,2.69219179 C89.7238836,4.22037652 84.737713,6.43947771 80,9.17591539 C81.1129541,9.83279657 82.2259083,10.4964848 83.2810024,11.2350507 C87.3822554,9.01594951 91.6230531,7.21548243 96.0033955,5.96298359 C101.945958,4.2646224 108.055293,3.40352945 114.157822,3.40352945 C117.026997,3.40352945 119.960839,3.59072357 122.87426,3.96511181 C130.661536,4.96915299 138.050598,7.30737772 144.837236,10.9185225 C153.206515,15.3737425 160.292663,21.2924802 165.90168,28.5147697 C171.10908,35.2197227 174.904015,42.5679428 177.177573,50.3484111 C179.948046,59.8238371 180.567488,69.6191949 179.022286,79.4656055 C177.320521,90.2854257 172.998039,100.210118 166.214804,109.004838 L170.47262,109.004838 C176.67385,100.349662 180.703629,90.6904457 182.384973,79.9931526 C184.01186,69.6362125 183.385611,59.4460453 180.444961,49.3920193" id="Fill-18"></path>
                <path d="M79.0367608,82.8468086 C74.7585243,86.2639521 69.813196,88.7110898 64.2484254,90.1507828 L63.1558924,90.2869239 C61.9102007,90.2869239 60.6713159,89.7968157 59.8476618,88.9799686 C56.1684465,85.3211745 52.5028453,81.6555733 48.8338405,77.989972 C47.5507099,76.7068414 46.2641758,75.4271144 44.9844487,74.1439838 C43.9531793,73.1161179 42.9185063,72.088252 41.8906404,71.0569826 L41.8838334,71.0501755 L33.7119592,62.8783013 C28.2424874,57.4054259 22.7730155,51.9359541 17.2899296,46.4800964 C16.3505555,45.5475293 15.8672543,44.4039434 15.8774649,43.1820764 C15.8808684,42.7736528 15.9353249,42.3584222 16.0510449,41.9397881 C17.7562131,35.5649775 20.8125826,29.9355398 25.135065,25.2080374 C28.9368074,21.0523279 33.4362733,17.8121679 38.5041286,15.5794526 C43.5311416,13.3739655 48.8780864,12.2542043 54.4054182,12.2542043 L54.9601935,12.2576078 C60.1233477,12.3256784 65.1197289,13.3739655 69.806389,15.3684337 C69.928916,15.4194867 70.0412325,15.4909608 70.1637596,15.5454173 C71.3005384,16.0423326 72.4032819,16.5937043 73.4787972,17.1859185 C77.7570338,19.5411608 81.545162,22.621355 84.7376727,26.4299044 C89.1044009,31.6373045 91.9531551,37.5662528 93.2090575,44.0567834 C93.566428,45.9048999 93.7536222,47.75642 93.8863598,49.1110247 L94.0463257,50.5677353 L94.0429222,50.8025788 C93.8795528,60.7374813 91.3269057,68.6336696 86.0071891,75.6551508 C83.9310362,78.394992 81.603022,80.7978838 79.0367608,82.8468086 M52.3701076,92.0329345 C51.3320311,91.9852851 50.0795323,91.8253192 48.5581546,91.4917734 C46.1144205,90.9540157 42.9899805,89.9703957 39.0248686,88.2924557 C38.5585851,88.0984545 38.0923016,87.8942427 37.6328251,87.6798204 C37.1835592,87.4824157 36.7649251,87.3088357 36.2986416,87.0944133 L36.3871333,87.0807992 C34.7500357,86.2401274 33.1401662,85.266718 31.5745427,84.1435533 C30.5024309,83.3743556 29.532425,83.8474462 29.011685,84.3681862 C26.755145,86.648551 24.4815873,88.9153016 22.2114332,91.1820522 L17.8208802,95.5760087 L17.5247731,95.8687122 C16.6636802,96.7366122 15.8127978,97.6181264 14.9517049,98.5098511 L11.0648742,102.512402 L4.8772577,95.5760087 L4.16251651,94.7761793 L7.67836243,91.3794569 C8.58029774,90.5149604 9.53328598,89.599411 10.4692566,88.6668439 L12.5113742,86.6349368 C15.6562355,83.5036897 18.8045002,80.3690391 21.9051155,77.1935461 C22.6743132,76.4039273 22.9023497,75.7708708 21.9970108,74.4979508 C18.7500437,69.9270108 16.5513637,64.695786 15.4588308,58.9506283 C15.3941637,58.6102754 15.370339,58.2665189 15.3567249,57.9295695 L15.023179,49.2471659 L21.156339,55.1625 L21.4354285,55.4415894 L45.6106981,79.6372803 L49.9910405,84.0176227 L52.2680017,86.2979874 L52.2680017,86.3116015 L56.9580653,91.0050686 C56.9580653,91.0050686 56.0050771,92.203111 52.3701076,92.0329345 M96.9393257,56.9970024 C97.6846987,51.0748612 97.146941,45.0710352 95.3362634,39.148894 C93.8727457,34.353321 91.541328,29.8674692 88.4100809,25.8070585 C85.061008,21.4675585 80.9937903,17.9074667 76.3649902,15.1199761 C75.9293384,14.8613078 75.5209149,14.5652008 75.0750526,14.3167431 C74.4011537,13.9423549 73.7034302,13.6326337 73.0159172,13.2990878 C69.0099631,11.3556725 64.7623583,10.0453137 60.0620842,9.39183602 C53.8506429,8.52733954 47.5473064,9.09572896 41.2405663,11.0731796 C37.2107875,12.3324855 33.3069392,14.296322 29.6277238,16.906829 C24.6449567,20.4430961 20.5334932,24.9255444 17.4090531,30.2316468 C14.1246472,35.8066281 12.2084601,41.8478928 11.7149484,48.1886682 C11.3439636,52.8923459 11.6809131,57.4292506 12.715586,61.6734519 C13.699206,65.7338625 15.1048637,69.317779 17.0108402,72.6328167 C18.6581484,75.495185 17.106139,77.5032673 16.3641696,78.2350262 L15.9897813,78.6026073 C12.0621084,82.4826309 8.13443538,86.3558474 4.28164005,90.3039416 C3.77451416,90.8212781 3.24356356,91.3147898 2.71261297,91.8117051 C1.57583413,92.8633957 0.571792947,93.7993663 0,94.8612675 L0,95.378604 C0.0238247061,95.4262534 0.0510529417,95.4739028 0.0748776478,95.5215522 C0.0850882362,95.5385699 0.0952988245,95.5555875 0.105509413,95.5760087 C0.302914121,95.9401863 0.537757653,96.3690311 0.68070589,96.5187863 C2.84875415,98.7617123 5.06785535,100.960392 7.28014949,103.162476 L9.71707657,105.582385 C10.6836789,106.542181 11.7285625,106.191617 12.2493025,105.674281 C15.6426213,102.328611 18.9985014,98.9489064 22.3611885,95.5760087 C24.158252,93.7687346 25.9757367,91.9784781 27.7693968,90.1678004 C28.1608027,89.772991 29.3554415,88.564738 31.2512074,88.564738 C32.1191074,88.564738 32.9529721,88.8131957 33.807258,89.3203216 C36.0944298,90.6783298 38.7457792,91.8151087 41.9042546,92.7885181 C44.4364805,93.5679263 47.0095487,94.0716487 49.5996346,94.3711593 C50.8827652,94.517511 52.1692994,94.5957922 53.4626406,94.626424 C55.3379853,94.6672663 57.2167335,94.633231 59.0954818,94.4256157 C66.6138783,93.5951546 73.4651831,90.9574192 79.4690091,86.5872874 C84.7342691,82.7515097 88.9716633,77.9389191 92.0688751,72.2856567 C94.6079081,67.646646 96.2484093,62.503913 96.9393257,56.9970024" id="Fill-21"></path>
                <path d="M97.1378389,103.416713 C94.2278212,103.416713 91.8555612,101.047857 91.8555612,98.1344354 C91.8555612,97.1950613 92.12444,96.3237577 92.5566883,95.5579636 C93.4654306,93.9514977 95.1671954,92.8521577 97.1378389,92.8521577 C99.1084825,92.8521577 100.810247,93.9514977 101.71899,95.5579636 C102.151238,96.3237577 102.420117,97.1950613 102.420117,98.1344354 C102.420117,101.047857 100.047857,103.416713 97.1378389,103.416713 M97.1378389,90 C93.5573259,90 90.5452024,92.3382247 89.4594765,95.5579636 C89.1837906,96.3714071 89,97.2290965 89,98.1344354 C89,102.623691 92.6519871,106.275678 97.1378389,106.275678 C101.623691,106.275678 105.275678,102.623691 105.275678,98.1344354 C105.275678,97.2290965 105.091887,96.3714071 104.816201,95.5579636 C103.730475,92.3382247 100.718352,90 97.1378389,90" id="Fill-23"></path>
            </g>
        </g>
    </g>
</svg>